# xmcd
#
# Track frame offsets: 
#        150
#        17910
#        33652
#        55811
#        73676
#        91325
#        107023
#        126860
#        144126
#        162895
#        179299
#        191912
#        208284
#
# Disc length: 2984 seconds
#
# Revision: 0
# Processed by: cddbd v1.5.2PL0 Copyright (c) Steve Scherf et al.
# Submitted via: ExactAudioCopyFreeDBPlugin 1.0
#
DISCID=bb0ba60d
DTITLE=Thelma Jones - Thelma Jones
DYEAR=1978
DGENRE=Funk
TTITLE0=I Second That Emotion
TTITLE1=Lonely Enough To Try Anything
TTITLE2=Now That We've Found Love
TTITLE3=Angel Of The Morning
TTITLE4=I Can Dream
TTITLE5=How Long
TTITLE6=Stay Awhile With Me
TTITLE7=I'd Rather Leave While I'm In Love
TTITLE8=I Want What You Want
TTITLE9=Salty Tears
TTITLE10=You're The Song (That I Can't Stop Singing)
TTITLE11=Love, Look What You Got Me Into
TTITLE12=I Second That Emotion (Single Version)
EXTD=
EXTT0=
EXTT1=
EXTT2=
EXTT3=
EXTT4=
EXTT5=
EXTT6=
EXTT7=
EXTT8=
EXTT9=
EXTT10=
EXTT11=
EXTT12=
PLAYORDER=
